<svg xmlns="http://www.w3.org/2000/svg" viewBox="0 0 100 100">
  <defs>
    <linearGradient id="grad" x1="0%" y1="0%" x2="100%" y2="100%">
      <stop offset="0%" style="stop-color:#DC2626;stop-opacity:1" />
      <stop offset="100%" style="stop-color:#991B1B;stop-opacity:1" />
    </linearGradient>
  </defs>

  <!-- Shield background -->
  <path d="M50 5 L85 20 L85 50 Q85 75 50 95 Q15 75 15 50 L15 20 Z"
        fill="url(#grad)"
        stroke="#1F2937"
        stroke-width="2"/>

  <!-- Letter "B" in Cyrillic (В) stylized as knight/warrior symbol -->
  <path d="M35 30 L35 70 L55 70 Q65 70 65 60 Q65 55 60 52.5 Q65 50 65 45 Q65 35 55 35 L45 35 L45 30 Z
           M45 42 L53 42 Q58 42 58 47 Q58 52 53 52 L45 52 Z
           M45 59 L54 59 Q59 59 59 63.5 Q59 68 54 68 L45 68 Z"
        fill="white"
        stroke="white"
        stroke-width="1"/>
</svg>
